<svg height="512pt" viewBox="0 0 512 512" width="512pt" xmlns="http://www.w3.org/2000/svg"><path d="m501.332031 392.535156-200.53125-200.535156c-2.132812-2.132812-6.402343-4.265625-10.667969-4.265625-6.398437 0-12.800781 4.265625-12.800781 12.800781v292.265625c0 8.53125 6.402344 14.933594 14.933594 14.933594 4.269531 0 6.402344-2.132813 10.667969-4.269531l83.199218-87.464844h106.667969c8.53125 0 14.933594-6.398438 14.933594-14.933594-2.132813-2.132812-2.132813-6.398437-6.402344-8.53125zm0 0" fill="#4caf50"/><path d="m234.667969 469.332031c-14.933594 0-29.867188-2.132812-44.800781-4.265625-8.535157-2.132812-14.933594-10.667968-12.800782-19.199218 2.132813-8.535157 10.667969-14.933594 19.199219-12.800782 12.800781 2.132813 25.601563 4.265625 38.402344 4.265625 8.53125 0 17.066406 6.402344 17.066406 17.066407 0 10.667968-8.535156 14.933593-17.066406 14.933593zm0 0"/><path d="m113.066406 433.066406c-2.132812 0-6.398437 0-8.53125-2.132812-25.601562-17.066406-46.933594-38.398438-64-64-4.269531-6.398438-2.136718-17.066406 4.265625-21.332032 6.398438-4.269531 17.066407-2.136718 21.332031 4.265626 14.933594 21.332031 34.132813 40.53125 55.46875 55.464843 6.398438 4.269531 8.53125 14.933594 4.265626 21.335938-2.132813 4.265625-6.402344 6.398437-12.800782 6.398437zm-93.867187-138.667968c-8.53125 0-14.933594-4.265626-14.933594-12.796876-2.132813-17.066406-4.265625-32-4.265625-46.933593 0-14.933594 2.132812-29.867188 4.265625-44.800781 2.132813-8.535157 10.667969-14.933594 19.199219-12.800782 8.535156 2.132813 14.933594 10.667969 12.800781 19.199219-2.132813 12.800781-4.265625 25.601563-4.265625 38.402344 0 12.796875 2.132812 27.730469 4.265625 40.53125 2.132813 8.535156-4.265625 17.066406-12.800781 19.199219-2.132813 0-2.132813 0-4.265625 0zm34.132812-164.265626c-2.132812 0-6.398437 0-8.53125-2.132812-6.402343-4.265625-8.535156-14.933594-4.265625-21.332031 17.066406-25.601563 38.398438-46.933594 64-64 6.398438-4.269531 17.066406-2.132813 21.332032 4.265625 4.265624 6.398437 2.132812 17.066406-4.265626 21.332031-21.335937 14.933594-40.535156 34.132813-55.46875 55.46875-2.132812 2.132813-8.53125 6.398437-12.800781 6.398437zm362.667969-2.132812c-4.265625 0-10.667969-2.132812-12.800781-6.398438-14.933594-21.335937-34.132813-40.535156-55.464844-55.46875-6.402344-4.265624-8.535156-14.933593-4.269531-21.332031 4.269531-6.402343 14.933594-8.535156 21.335937-4.265625 25.597657 17.066406 46.933594 38.398438 64 64 4.265625 6.398438 2.132813 17.066406-4.265625 21.332032-2.136718 2.132812-4.269531 2.132812-8.535156 2.132812zm-224-91.734375c-8.535156 0-14.933594-4.265625-14.933594-12.800781-2.132812-8.53125 2.132813-17.066406 10.667969-19.199219 17.066406-2.132813 32-4.265625 46.933594-4.265625 14.933593 0 29.867187 2.132812 44.796875 4.265625 8.535156 2.132813 14.933594 10.667969 12.800781 19.199219-2.132813 8.535156-10.664063 14.933594-19.199219 12.800781-12.800781-2.132813-25.601562-4.265625-38.398437-4.265625-12.800781 0-25.601563 2.132812-40.535157 4.265625zm0 0"/><path d="m454.398438 251.734375c-8.53125 0-17.066407-6.402344-17.066407-17.066406 0-12.800781-2.132812-25.601563-4.265625-38.402344-2.132812-8.53125 4.265625-17.066406 12.800782-19.199219 8.53125-2.132812 17.066406 4.265625 19.199218 12.800782 2.132813 14.933593 4.265625 29.867187 4.265625 44.800781 0 8.53125-6.398437 14.933593-14.933593 17.066406zm0 0"/><path d="m292.265625 512c-10.664063 0-19.199219-8.535156-19.199219-19.199219v-292.265625c0-10.667968 8.535156-19.203125 19.199219-19.203125 4.269531 0 10.667969 2.132813 12.800781 6.402344l200.535156 200.53125c4.265626 4.269531 6.398438 8.535156 6.398438 12.800781 0 10.667969-8.535156 19.199219-19.199219 19.199219h-104.535156l-81.066406 85.335937c-6.398438 4.265626-10.664063 6.398438-14.933594 6.398438zm12.800781-281.601562v230.402343l64-66.132812c2.132813-2.132813 6.398438-4.269531 10.667969-4.269531h81.066406zm179.199219 181.335937"/></svg>